# xmcd
#
# Track frame offsets:
#	150
#	26463
#	43804
#	52832
#	66743
#	85349
#	96805
#	111069
#	125336
#
# Disc length: 1879 seconds
#
# Revision: 0
# Processed by: cddbd v1.5PL3 Copyright (c) Steve Scherf et al.
# Submitted via: dBpowerAMP V4.0
#
DISCID=75075509
DTITLE=Adam Pringle Band - 1 to 8
DYEAR=2002
DGENRE=Blues
TTITLE0=Gamera's Revenge
TTITLE1=Got A Woman
TTITLE2=Fruit Biscuits
TTITLE3=1 To 8
TTITLE4=I Can Dance Like A Robot
TTITLE5=Red Rocket
TTITLE6=Snail
TTITLE7=Turning Heads
TTITLE8=Found A Place
EXTD=Adam Pringle Band play a unique style of "groove-blues". Their music is rooted in blues music, but steps out on a limb with influences of funk, jazz and hip-hop.
EXTT0=
EXTT1=
EXTT2=
EXTT3=
EXTT4=
EXTT5=
EXTT6=
EXTT7=
EXTT8=
PLAYORDER=
